# xmcd
#
# Track frame offsets:
#	150
#	14860
#	29335
#	44726
#	60316
#	74485
#	89539
#	104204
#	117250
#	133060
#
# Disc length: 1957 seconds
#
# Revision: 0
# Processed by: cddbd v1.5.2PL0 Copyright (c) Steve Scherf et al.
# Submitted via: EasyCDDAExtractor 16.0.6.1
#
DISCID=9b07a30a
DTITLE=Συλλογικός δίσκος - Λαϊκό τραγούδι 1954-1967, 1958-5
DYEAR=2008
DGENRE=Λαϊκή
TTITLE0=Καζαντζίδης Στέλιος-Γκρέκα Άντζελα - Έχεις κορμί αράπικο [Στέλιος Καζα
TTITLE0=ντζίδης]
TTITLE1=Γκρέϋ Καίτη - Εγώ πληρώνω τα σπασμένα [Γιάννης Παπαϊωάννου]
TTITLE2=Γαβαλάς Πάνος - Πάλι με χαράματα [Πάνος Γαβαλάς]
TTITLE3=Μπέλλου Σωτηρία - Δικάστε με, δικάστε με [Γιώργος Ροβερτάκης]
TTITLE4=Καζαντζίδης Στέλιος - Δε σε λησμονώ [Στέλιος Καζαντζίδης-Χρήστος Κολοκ
TTITLE4=οτρώνης]
TTITLE5=Καζαντζίδης Στέλιος - Το πονεμένο τραγούδι [Στέλιος Καζαντζίδης]
TTITLE6=Γαβαλάς Πάνος - Την άγκυρα βίρα [Πάνος Γαβαλάς-Φώτης Ζησούλης]
TTITLE7=Δούκισσα - Μιά βραδιά καταραμένη [Άκης Πάνου-Χρήστος Κολοκοτρώνης]
TTITLE8=Καζαντζίδης Στέλιος - Το χαμένο κορμί [Απόστολος Καλδάρας-Κώστας Βίρβο
TTITLE8=ς]
TTITLE9=Ρουμελιώτης Δημήτρης-Παπανικολάου Νότα - Στην μαγεμένη αραπιά [Γιώργος
TTITLE9=Μητσάκης]
EXTD=
EXTT0=
EXTT1=
EXTT2=
EXTT3=
EXTT4=
EXTT5=
EXTT6=
EXTT7=
EXTT8=
EXTT9=
PLAYORDER=
